<svg xmlns="http://www.w3.org/2000/svg" viewBox="0 0 1000 620" font-family="-apple-system, BlinkMacSystemFont, 'Segoe UI', sans-serif">
  <!-- White background so text stays readable in GitHub dark mode -->
  <rect width="1000" height="620" fill="#ffffff" />
  <style>
    .box        { fill: #f6f8fa; stroke: #d0d7de; stroke-width: 2; rx: 8; }
    .inner-box  { fill: #ffffff; stroke: #d0d7de; stroke-width: 1.5; rx: 6; }
    .green-box  { fill: #dcfce7; stroke: #22863a; stroke-width: 2; rx: 8; }
    .title      { font-size: 20px; font-weight: 700; fill: #1f2328; }
    .box-title  { font-size: 16px; font-weight: 600; fill: #1f2328; }
    .pin        { font-size: 13px; fill: #1f2328; }
    .pin-used   { font-size: 13px; fill: #1f2328; font-weight: 700; }
    .pin-label  { font-size: 11px; fill: #57606a; }
    .pin-sub    { font-size: 11px; fill: #1f2328; }
    .hole       { fill: #ffffff; stroke: #57606a; stroke-width: 1.5; }
    .hole-used  { fill: #fff8c5; stroke: #9a6700; stroke-width: 2.5; }
    .esp-pin    { fill: #ffffff; stroke: #57606a; stroke-width: 1; }
    .esp-pin-used { fill: #fff8c5; stroke: #9a6700; stroke-width: 2.5; }
    .wire       { fill: none; stroke-width: 3; }
    .wire-gnd   { stroke: #6e7681; }
    .wire-rx    { stroke: #1f6feb; }
    .wire-tx    { stroke: #cf222e; }
    .wire-usb   { stroke: #8b949e; stroke-dasharray: 6 4; stroke-width: 2; }
    .wire-rj12  { stroke: #1f2328; stroke-width: 2; }
    .wire-label { font-size: 11px; font-weight: 600; }
    .note       { font-size: 11px; fill: #57606a; font-style: italic; }
  </style>

  <text x="500" y="36" text-anchor="middle" class="title">JCB35M12C Spare RJ12 → Green Terminal → ESP32 Wiring</text>

  <!-- ============ Control Box ============ -->
  <rect x="40" y="90" width="200" height="290" class="box" />
  <text x="140" y="118" text-anchor="middle" class="box-title">Control Box</text>
  <text x="140" y="138" text-anchor="middle" class="pin-label">JCB35M12C</text>
  <rect x="60" y="184" width="160" height="180" class="inner-box" />
  <text x="76"  y="208" class="pin">Pin 1</text>
  <text x="204" y="208" text-anchor="end" class="pin-label">NC</text>
  <text x="76"  y="234" class="pin-used">Pin 2</text>
  <text x="204" y="234" text-anchor="end" class="pin-label">GND</text>
  <text x="76"  y="260" class="pin-used">Pin 3</text>
  <text x="204" y="260" text-anchor="end" class="pin-label">TX (height out)</text>
  <text x="76"  y="286" class="pin">Pin 4</text>
  <text x="204" y="286" text-anchor="end" class="pin-label">VCC 5V</text>
  <text x="76"  y="312" class="pin-used">Pin 5</text>
  <text x="204" y="312" text-anchor="end" class="pin-label">RX (commands in)</text>
  <text x="76"  y="338" class="pin">Pin 6</text>
  <text x="204" y="338" text-anchor="end" class="pin-label">NC</text>

  <!-- ============ Green Terminal ============ -->
  <rect x="380" y="120" width="240" height="160" class="green-box" />
  <text x="500" y="148" text-anchor="middle" class="box-title">Green Terminal</text>
  <text x="500" y="168" text-anchor="middle" class="pin-label">Numbering starts from the right of the screw face (L→R: 5 4 3 2 1)</text>

  <!-- Sub-labels above holes -->
  <text x="410" y="200" text-anchor="middle" class="pin-sub">RX</text>
  <text x="450" y="200" text-anchor="middle" class="pin-label">5V</text>
  <text x="490" y="200" text-anchor="middle" class="pin-sub">TX</text>
  <text x="530" y="200" text-anchor="middle" class="pin-sub">GND</text>
  <text x="570" y="200" text-anchor="middle" class="pin-label">NC</text>

  <!-- Holes -->
  <circle cx="410" cy="230" r="18" class="hole-used" />
  <text x="410" y="235" text-anchor="middle" class="pin-used">5</text>

  <circle cx="450" cy="230" r="18" class="hole" />
  <text x="450" y="235" text-anchor="middle" class="pin">4</text>

  <circle cx="490" cy="230" r="18" class="hole-used" />
  <text x="490" y="235" text-anchor="middle" class="pin-used">3</text>

  <circle cx="530" cy="230" r="18" class="hole-used" />
  <text x="530" y="235" text-anchor="middle" class="pin-used">2</text>

  <circle cx="570" cy="230" r="18" class="hole" />
  <text x="570" y="235" text-anchor="middle" class="pin">1</text>

  <!-- ============ ESP32 ============ -->
  <rect x="760" y="90" width="200" height="290" class="box" />
  <text x="860" y="118" text-anchor="middle" class="box-title">ESP-WROOM-32</text>
  <text x="860" y="138" text-anchor="middle" class="pin-label">30-pin DevKit</text>
  <rect x="780" y="184" width="160" height="180" class="inner-box" />

  <circle cx="800" cy="216" r="6" class="esp-pin-used" />
  <text x="816" y="220" class="pin-used">GND</text>
  <text x="924" y="220" text-anchor="end" class="pin-label">common GND</text>

  <circle cx="800" cy="256" r="6" class="esp-pin-used" />
  <text x="816" y="260" class="pin-used">RX2</text>
  <text x="924" y="260" text-anchor="end" class="pin-label">GPIO16</text>

  <circle cx="800" cy="296" r="6" class="esp-pin-used" />
  <text x="816" y="300" class="pin-used">TX2</text>
  <text x="924" y="300" text-anchor="end" class="pin-label">GPIO17</text>

  <circle cx="800" cy="336" r="6" class="esp-pin" />
  <text x="816" y="340" class="pin-sub">VIN/3V3</text>
  <text x="924" y="340" text-anchor="end" class="pin-label">skip</text>

  <!-- ============ RJ12 Cable ============ -->
  <path d="M 240 260 Q 310 270 380 220" class="wire wire-rj12" />
  <text x="305" y="280" text-anchor="middle" class="pin-label">RJ12 cable</text>

  <!-- ============ Wires: GREEN -> ESP32 ============ -->
  <path d="M 530 248 V 380 H 750 V 216 H 800" class="wire wire-gnd" />
  <path d="M 490 248 V 420 H 730 V 256 H 800" class="wire wire-rx" />
  <path d="M 410 248 V 460 H 710 V 296 H 800" class="wire wire-tx" />

  <text x="640" y="370" text-anchor="middle" class="wire-label" fill="#6e7681">Brown: GND</text>
  <text x="610" y="410" text-anchor="middle" class="wire-label" fill="#1f6feb">Black: Controller TX → ESP32 RX2</text>
  <text x="565" y="450" text-anchor="middle" class="wire-label" fill="#cf222e">Red: Controller RX ← ESP32 TX2</text>

  <!-- USB power note -->
  <text x="860" y="405" text-anchor="middle" class="note">Power: Micro USB (5V charger)</text>

  <!-- ============ Legend ============ -->
  <rect x="40" y="520" width="920" height="90" class="box" fill="#ffffff" />

  <line x1="60"  y1="552" x2="115" y2="552" class="wire wire-gnd" />
  <text x="125" y="556" class="pin">GND (common ground, required)</text>

  <line x1="340" y1="552" x2="395" y2="552" class="wire wire-rx" />
  <text x="405" y="556" class="pin">Controller TX → RX2 (read height)</text>

  <line x1="640" y1="552" x2="695" y2="552" class="wire wire-tx" />
  <text x="705" y="556" class="pin">Controller RX ← TX2 (send commands)</text>

  <text x="60" y="590" class="note">Critical: number the terminal from the RIGHT of the screw (metal) face — counting the other way puts TX/RX on NC.</text>
</svg>
